<svg width="500" height="459" fill="none" xmlns="http://www.w3.org/2000/svg"><g clip-path="url(#a)" fill="#7BBEC8"><path d="M492.446 61.875c-4.072 1.3-11.151 5.543-19.42 11.643-8.175 6.039-17.604 13.564-38.841 30.968-53.499 43.849-85.449 68.406-123.256 94.821-8.425 5.853-29.099 19.912-29.349 19.912-.063 0-.094-1.022-.094-2.261 0-1.858-.157-2.477-.846-3.654-1.065-1.796-3.132-3.654-4.322-3.902l-.909-.155 2.412-2.384c4.698-4.521 6.985-8.764 8.99-16.629.062-.186.908-.62 1.942-1.022 7.423-2.787 11.996-8.64 11.996-15.36 0-4.397-1.44-7.773-4.698-11.024-4.041-4.026-9.804-5.574-16.319-4.336l-2.068.403-2.474-1.982c-1.378-1.053-2.819-2.168-3.258-2.446l-.783-.527 1.191-1.115c3.978-3.84 3.727-10.776-.533-15.297-2.224-2.354-3.821-3.004-7.392-3.004-2.788 0-3.101.062-4.918 1.053-2.412 1.269-4.573 3.499-5.669 5.852-.721 1.518-.846 2.199-.846 4.614v2.849l-1.723.186c-5.012.527-9.084 1.703-12.498 3.592-5.794 3.252-10.462 8.269-13.782 14.772-.72 1.393-1.347 2.539-1.409 2.539-.063 0-.721-.217-1.473-.464-1.942-.682-7.956-2.168-11.871-2.911-4.197-.836-9.992-1.487-15.38-1.765l-4.26-.217.47-1.518c.658-2.229.376-8.113-.501-10.776-2.005-6.008-6.797-10.777-13.062-12.883-2.067-.681-3.069-.836-5.794-.867-3.634-.031-5.764.372-8.614 1.673-11.12 4.985-15.286 19.912-8.269 29.573.563.774.939 1.456.877 1.518-.063.062-1.473.681-3.101 1.424-19.17 8.423-35.771 25.053-44.761 44.81-15.912 34.993-9.93 74.909 16.069 107.084 3.226 3.995 11.652 12.325 15.724 15.515 15.724 12.418 31.668 19.323 50.869 21.986 5.418.775 18.731.775 24.901.031 12.028-1.486 22.459-4.49 32.044-9.321 14.565-7.339 26.75-19.23 34.674-33.816l1.191-2.23 6.139-.154c5.575-.124 6.484-.217 9.804-1.084 10.462-2.694 18.637-8.702 23.304-17.156.909-1.61 1.347-2.106 1.848-2.106.376 0 1.065-.279 1.535-.65 1.003-.774 1.065-1.982.157-2.942l-.658-.681.658-2.602c1.942-7.772 1.566-16.846-.94-23.256-.344-.805-.595-1.579-.595-1.734 0-.124.752-.341 1.691-.434 4.855-.495 8.771-5.016 8.238-9.537-.376-2.942-2.349-5.636-5.168-6.999-1.472-.712-2.193-.867-4.135-.836-3.696 0-6.327 1.517-7.862 4.521l-.626 1.208-1.66-1.487c-2.068-1.889-6.14-4.583-9.648-6.441l-2.693-1.424.908-2.54c.532-1.393 1.441-3.716 2.067-5.171.595-1.456 1.253-3.004 1.441-3.468.282-.651.501-.806 1.034-.682 1.315.341 2.224-1.486 1.221-2.477-.438-.403-.344-.681.658-2.57 3.038-5.574 7.612-11.83 20.485-27.933l3.289-4.118 10.337-7.959c27.877-21.46 46.233-34.714 105.245-75.993 34.33-24.031 47.298-34.9 49.929-41.868.846-2.199.814-3.345-.031-4.83-1.191-2.107-3.477-2.633-6.829-1.55ZM325.714 202.404c-6.453 8.175-17.353 23.256-21.174 29.264-1.629 2.57-2.036 2.756-.627.309 7.079-12.355 16.695-27.158 18.919-29.202 1.629-1.486 6.265-5.171 6.515-5.202.126-.031-1.503 2.168-3.633 4.831Zm-11.245 9.29c-3.727 5.295-13.406 19.664-17.196 25.579-1.285 1.982-2.475 3.561-2.663 3.499-.219-.093-1.378-.248-2.6-.372l-2.224-.216 1.379-.898c2.787-1.796 4.823-4.676 5.669-7.959.533-1.951.47-2.694-.344-6.224-.157-.713.689-1.487 9.459-8.671 5.294-4.336 10.055-8.268 10.587-8.733.533-.464 1.065-.867 1.191-.867.094 0-1.347 2.199-3.258 4.862Z"/><path d="M300.436 105.198c-2.788.929-4.416 1.889-6.139 3.654-3.79 3.84-4.699 8.949-2.569 14.616 1.034 2.787 2.224 4.738 5.2 8.362.72.898 1.316 1.858 1.316 2.105 0 .991 1.722 3.747 3.32 5.265 3.696 3.561 8.864 4.985 12.78 3.53 4.667-1.734 7.141-6.41 6.17-11.613-.188-1.022-.908-3.004-1.629-4.428-1.096-2.137-1.284-2.756-1.127-3.84.25-1.858-.313-6.596-1.065-8.888-1.222-3.808-3.822-6.812-7.11-8.33-2.35-1.053-6.641-1.269-9.147-.433ZM245.778 120.248c-1.379.619-2.256 1.703-2.694 3.313-.345 1.239-.313 1.642.156 2.88 1.942 5.048 9.272 3.716 9.272-1.703 0-1.641-.752-3.221-1.973-4.057-1.159-.805-3.477-1.022-4.761-.433ZM341 143.318c-1.41.836-1.974 1.611-2.287 3.066-.533 2.23.407 4.614 2.161 5.512 1.222.62 3.884.558 5.043-.124 2.068-1.176 2.819-4.83 1.41-6.905-1.347-2.013-4.385-2.756-6.327-1.549ZM364.022 204.014c-3.195 1.672-3.132 6.627.094 8.299 2.161 1.115 5.137.403 6.609-1.548.971-1.27.908-4.057-.094-5.45-1.347-1.858-4.417-2.478-6.609-1.301ZM411.852 207.266c-2.631.96-4.918 3.158-5.857 5.605l-.313.836-.909-1.239c-2.568-3.468-9.146-4.026-12.372-1.053-3.258 3.035-3.195 9.414.125 13.161 1.66 1.858 3.79 2.725 6.609 2.725 3.352 0 6.233-1.548 7.173-3.778.376-.836.94-1.238.94-.619 0 .155.626.929 1.409 1.734 4.01 4.057 10.493 4.428 14.252.805 2.13-2.044 2.913-4.304 2.757-7.772-.22-4.429-2.475-8.052-6.171-9.941-1.754-.898-5.826-1.146-7.643-.464ZM329.347 217.206c-1.002.681-1.441 2.477-.908 3.685.564 1.363 1.253 1.827 2.725 1.827 1.441 0 2.631-.929 2.944-2.26.251-1.084-.501-2.942-1.346-3.376-.94-.495-2.632-.402-3.415.124ZM403.896 234.548c-1.785.743-2.662 2.911-1.973 4.923.689 2.075 3.257 3.128 5.387 2.261 1.472-.619 2.224-1.796 2.224-3.468 0-1.734-.752-2.849-2.38-3.592-1.567-.682-1.942-.713-3.258-.124ZM387.733 259.476c-1.879.496-3.476 1.425-4.729 2.818-1.754 1.889-2.475 3.716-2.631 6.627-.22 4.336 1.534 7.742 4.98 9.6 2.161 1.146 6.17 1.456 8.676.65 8.113-2.663 8.645-15.421.815-18.983-1.88-.836-5.2-1.176-7.111-.712ZM355.878 306.825c-5.889 1.796-8.833 8.64-6.202 14.338 1.065 2.322 2.474 3.778 4.573 4.8 1.598.774 2.13.867 4.761.867 2.6-.031 3.164-.124 4.573-.836a9.821 9.821 0 0 0 4.824-5.76c.815-2.539.783-4.428-.031-7.061-.877-2.787-3.383-5.388-5.92-6.131-1.723-.527-5.2-.619-6.578-.217Z"/></g><path d="M242.579 88.466c-.859-9.895-4.35-17.107-10.377-21.452-6.384-4.592-15.415-5.634-26.118-3.004a5.581 5.581 0 0 1-4.318-.739c-1.221-.78-2.034-1.97-2.291-3.343-4.874-25.892-24.602-44.467-57.056-53.728C118.666-.572 96.626-.001 95.972.02 92.916-.038 21.127-1.165 2.137 34.23c-.691 1.3-.723 2.872-.23 4.261.493 1.394 1.635 2.547 2.998 3.118.21.09 20.677 9.471 17.878 75.532a36.701 36.701 0 0 0-.147 3.223c0 .058-.01.126-.01.189l-.142 47.779c0 35.798 3.517 72.261 29.021 96.475 4.067 3.863 8.438 7.312 12.91 10.556v33.89a5.24 5.24 0 0 0 5.24 5.241 5.243 5.243 0 0 0 5.241-5.241v-26.546c.582.393 1.164.786 1.746 1.173l4.911 3.302c1.987 1.347 3.92 2.778 5.855 4.204 8.391 6.211 17.07 12.626 29.272 12.626.027 0 .048-.005.074-.005.026 0 .047.005.073.005 12.202 0 20.881-6.415 29.273-12.621 1.934-1.431 3.873-2.861 5.859-4.208l5.026-3.381c.587-.393 1.179-.796 1.772-1.189v26.641a5.24 5.24 0 0 0 5.241 5.241 5.243 5.243 0 0 0 5.241-5.241v-33.89c4.465-3.244 8.842-6.693 12.909-10.556 21.353-20.273 27.349-49.137 28.764-79.043 39.713-41.03 32.406-92.771 31.667-97.299Zm-41.751 79.273c0 4.937-.089 9.969-.278 15.027-1.106 28.554-6.247 56.044-25.619 74.436-4.177 3.962-8.832 7.531-13.617 10.922-.11.068-.236.105-.346.178-3.265 2.317-6.593 4.534-9.916 6.756l-5.121 3.438c-2.102 1.431-4.162 2.951-6.211 4.466-7.327 5.414-14.25 10.529-22.967 10.561-8.716-.032-15.64-5.147-22.967-10.561-2.05-1.515-4.104-3.035-6.21-4.466l-5.09-3.412c-8.192-5.477-16.657-11.137-23.764-17.883-23.763-22.558-25.755-57.7-25.755-88.855l.141-47.664c.005-.078.005-.146.01-.219.006-1.447.19-2.868.425-4.272.073-.451.136-.907.236-1.353.335-1.504.765-2.987 1.368-4.423.01-.021.01-.037.02-.058.53-1.263 1.211-2.421 1.95-3.527.22-.331.466-.635.702-.944.582-.77 1.21-1.494 1.887-2.175.288-.288.566-.576.87-.849a21.642 21.642 0 0 1 2.794-2.138c.115-.079.22-.173.335-.242 1.1-.686 2.286-1.257 3.501-1.745.383-.163.78-.278 1.169-.414a24.639 24.639 0 0 1 2.762-.792c.435-.089.865-.194 1.305-.267a25.523 25.523 0 0 1 3.428-.33c.23-.01.451-.048.687-.048.917-.005 1.86.131 2.793.226.613.062 1.221.052 1.84.157 1.546.267 3.103.67 4.644 1.231 7.992 2.888 23.355 6.342 51.133 6.342 17.359 0 29.87-1.347 38.765-3.066 5.335-1.033 9.371-2.191 12.369-3.276 1.95-.702 3.915-1.09 5.87-1.336 10.587-1.331 20.818 3.774 24.796 13.187a26.097 26.097 0 0 1 2.06 10.215l.001 47.173Z" fill="#000"/><path d="M22.07 441.57c0 4.512 9.93 8.839 27.607 12.03 17.676 3.19 41.65 4.982 66.649 4.982 24.998 0 48.973-1.792 66.649-4.982 17.677-3.191 27.607-7.518 27.607-12.03s-9.93-8.839-27.607-12.029c-17.676-3.191-41.651-4.983-66.649-4.983-24.998 0-48.973 1.792-66.65 4.983C32 432.731 22.07 437.058 22.07 441.57Z" fill="url(#b)"/><path d="M100.069 434.358c0 11.434-13.63 12.942-30.425 12.942-16.796 0-30.426-1.501-30.426-12.942M190.688 434.358c0 11.434-13.63 12.942-30.425 12.942-16.796 0-30.426-1.501-30.426-12.942" fill="#820CE1"/><path d="M221.404 380.961c0 6.658-5.404 12.061-12.062 12.061h-34.171c-6.664 0-12.062-5.403-12.062-12.061v-94.486c0-6.658 5.398-12.061 12.062-12.061h34.171c6.658 0 12.062 5.403 12.062 12.061v94.486Z" fill="#2A5263"/><path d="M192.745 380.961c0 6.658-5.404 12.061-12.062 12.061h-34.17c-6.658 0-12.062-5.403-12.062-12.061v-94.486c0-6.658 5.404-12.061 12.062-12.061h34.171c6.658 0 12.061 5.403 12.061 12.061v94.486Z" fill="#1A3944"/><path d="M123.36 276.187c-7.677-8.637-2.805-25.505 10.886-37.693 13.69-12.171 87.296-65.091 94.986-56.479 7.665 8.649-53.512 75.585-67.202 87.755-13.678 12.164-30.992 15.041-38.67 6.417ZM106.534 276.187c7.677-8.636 2.805-25.505-10.885-37.693-13.69-12.171-87.296-65.091-94.986-56.478-7.666 8.648 53.511 75.584 67.202 87.754 13.678 12.165 30.992 15.041 38.669 6.417Z" fill="#A3BBC1"/><path d="M96.692 338.419c0 14.932-12.11 95.45-27.054 95.45-14.926 0-27.03-80.524-27.03-95.45 0-14.926 12.11-27.042 27.03-27.042 14.944 0 27.054 12.116 27.054 27.042ZM187.305 338.419c0 14.932-12.11 95.45-27.055 95.45-14.926 0-27.029-80.524-27.029-95.45 0-14.926 12.11-27.042 27.029-27.042 14.946 0 27.055 12.116 27.055 27.042Z" fill="#44748E"/><path d="M191.237 302.686c0 96.723-34.146 64.512-76.29 64.512-42.131 0-76.29 32.211-76.29-64.512 0-55.302 34.171-100.13 76.29-100.13 42.131.007 76.29 44.834 76.29 100.13Z" fill="#A3BBC1"/><g clip-path="url(#c)"><path d="M150.797 267.285c3.454 1.84 3.162 14.82-.92 29.989 0 13.718-4.177 34.595-34.977 34.595-30.8 0-34.978-20.876-34.978-34.595-4.081-15.169-4.374-28.149-.92-29.989 2.58-1.374 9.145 2.454 16.597 9.416 5.513-2.54 12.136-4.012 19.301-4.012 7.164 0 13.788 1.472 19.3 4.012 7.452-6.962 14.018-10.79 16.597-9.416Z" fill="#718B91"/><path d="M130.662 287.465a8.082 8.082 0 1 1-.005 16.161 8.082 8.082 0 0 1 .005-16.161ZM99.138 287.465a8.083 8.083 0 1 1 0 16.163 8.082 8.082 0 0 1 0-16.163Z" fill="#F4F9FC"/><path d="M121.513 316.872a5.343 5.343 0 0 1-5.337-5.337v-2.526a1.276 1.276 0 1 0-2.552 0v2.526a5.343 5.343 0 0 1-5.337 5.337 1.276 1.276 0 0 0 0 2.552 7.888 7.888 0 0 0 6.613-3.595 7.888 7.888 0 0 0 6.613 3.595 1.276 1.276 0 1 0 0-2.552Z" fill="#1A3944"/><path d="M99.138 299.572a1.276 1.276 0 0 1-1.276-1.276v-5.5a1.276 1.276 0 1 1 2.552 0v5.5c0 .705-.57 1.276-1.276 1.276ZM130.661 299.572a1.276 1.276 0 0 1-1.276-1.276v-5.5a1.276 1.276 0 0 1 2.552 0v5.5c0 .705-.571 1.276-1.276 1.276ZM119.204 309.247l-4.304 2.629-4.305-2.629a2.628 2.628 0 0 1 2.629-2.627h3.352a2.628 2.628 0 0 1 2.628 2.627Z" fill="#945136"/></g><path d="M51.032 205.825C28.229 190.682 4.824 177.36.662 182.015c-4.052 4.566 11.115 25.403 28.334 45.841l22.036-22.031ZM202.859 225.498c16.386-19.661 30.262-39.092 26.367-43.483-4.005-4.475-25.812 7.684-47.758 22.091l21.391 21.392Z" fill="#DDB281"/><path d="M116.739 243.506c11.241 0 20.354-9.113 20.354-20.355 0-11.241-9.113-20.354-20.354-20.354-11.242 0-20.355 9.113-20.355 20.354 0 11.242 9.113 20.355 20.355 20.355Z" fill="#D39959"/><path d="M100.069 434.358c0 11.434-13.63 12.942-30.425 12.942-16.796 0-30.426-1.501-30.426-12.942s13.63-27.187 30.426-27.187c16.795 0 30.425 15.747 30.425 27.187ZM190.688 434.358c0 11.434-13.63 12.942-30.425 12.942-16.796 0-30.426-1.501-30.426-12.942s13.63-27.187 30.426-27.187c16.795 0 30.425 15.747 30.425 27.187Z" fill="#A746F4"/><path d="M200.543 321.352c6.115 6.121 7.574 14.582 3.262 18.906-4.312 4.312-12.779 2.841-18.894-3.274L82.097 234.176c-6.128-6.14-7.587-14.595-3.263-18.907 4.306-4.324 12.767-2.865 18.895 3.263l102.814 102.82Z" fill="#44748E"/><path d="M213.678 156.462c0 48.242-44.206 72.491-98.719 72.491-54.524 0-98.743-24.249-98.743-72.491 0-48.252 44.219-95.136 98.743-95.136 54.513 0 98.719 46.884 98.719 95.136Z" fill="#EFC286"/><path d="M91.895 150.367a1.82 1.82 0 0 1-1.321-.549c-4.312-4.306-10.035-6.676-16.114-6.676h-.013c-6.079 0-11.79 2.376-16.078 6.67-.73.73-1.906.748-2.63.006a1.837 1.837 0 0 1-.023-2.617c5.006-5.012 11.652-7.78 18.726-7.78h.012c7.092 0 13.744 2.75 18.762 7.767.718.718.718 1.918 0 2.629-.356.375-.827.55-1.321.55ZM150.961 150.367a1.81 1.81 0 0 0 1.308-.549c4.312-4.306 10.035-6.676 16.115-6.676h.012a22.608 22.608 0 0 1 16.09 6.67c.718.73 1.894.748 2.63.006a1.839 1.839 0 0 0 .012-2.617c-4.981-5.012-11.652-7.78-18.726-7.78h-.012c-7.08 0-13.733 2.75-18.762 7.767-.706.718-.706 1.918 0 2.629.368.375.838.55 1.333.55Z" fill="#232728"/><path d="M28 109.776c18.258 14.328 40.48-15.677 76.459-15.677 29.084 0 57.252 9.938 75.889 0C187.424 97.876 202.994 124.433 212 127c-15.076-37.823-52.49-68-96.366-68C78.669 59 46.321 80.436 28 109.776Z" fill="#000"/><path d="M136.281 157.247c-5.505 0-9.959-2.813-9.959-6.29 0-3.47-4.464-6.29-9.959-6.29-5.495 0-9.959 2.82-9.959 6.29 0 3.477-4.454 6.29-9.959 6.29s-9.959-2.813-9.959-6.29c0-10.405 13.402-18.869 29.877-18.869s29.877 8.464 29.877 18.869c0 3.477-4.454 6.29-9.959 6.29ZM49.307 154.102H18.673c-3.368 0-6.093-2.813-6.093-6.29 0-3.476 2.725-6.29 6.093-6.29h30.634c3.368 0 6.093 2.814 6.093 6.29 0 3.477-2.725 6.29-6.093 6.29ZM210.937 152.53h-30.299c-3.368 0-6.094-2.813-6.094-6.29s2.726-6.29 6.094-6.29h30.299c3.369 0 6.094 2.813 6.094 6.29s-2.725 6.29-6.094 6.29Z" fill="#5C546A"/><path d="M76.265 172.972c10.856 0 19.656-9.856 19.656-22.015 0-12.158-8.8-22.014-19.656-22.014-10.856 0-19.656 9.856-19.656 22.014 0 12.159 8.8 22.015 19.656 22.015Z" fill="#AEEFFF"/><path d="M76.265 128.943c-5.393 0-10.274 2.44-13.825 6.379l27.785 31.119c3.518-3.978 5.696-9.443 5.696-15.484 0-12.158-8.8-22.014-19.656-22.014Z" fill="#fff"/><path d="M76.068 183.979c-16.798 0-30.466-14.109-30.466-31.449 0-17.341 13.668-31.45 30.466-31.45 16.799 0 30.467 14.109 30.467 31.45 0 17.34-13.668 31.449-30.467 31.449Zm0-50.319c-10.08 0-18.28 8.465-18.28 18.87 0 10.405 8.2 18.869 18.28 18.869 10.08 0 18.28-8.464 18.28-18.869s-8.2-18.87-18.28-18.87Z" fill="#868491"/><path d="M154.888 174.544c10.856 0 19.656-9.856 19.656-22.014 0-12.159-8.8-22.015-19.656-22.015-10.855 0-19.655 9.856-19.655 22.015 0 12.158 8.8 22.014 19.655 22.014Z" fill="#AEEFFF"/><path d="M154.889 130.515c-5.394 0-10.274 2.44-13.825 6.38l27.784 31.119c3.518-3.978 5.696-9.444 5.696-15.484 0-12.159-8.799-22.015-19.655-22.015Z" fill="#fff"/><path d="M156.264 183.979c-16.798 0-30.466-14.109-30.466-31.449 0-17.341 13.668-31.45 30.466-31.45 16.799 0 30.467 14.109 30.467 31.45 0 17.34-13.668 31.449-30.467 31.449Zm0-50.319c-10.08 0-18.28 8.465-18.28 18.87 0 10.405 8.2 18.869 18.28 18.869 10.08 0 18.28-8.464 18.28-18.869s-8.2-18.87-18.28-18.87Z" fill="#868491"/><defs><clipPath id="a"><path fill="#fff" transform="translate(99.066 61.326)" d="M0 0h400.934v301.62H0z"/></clipPath><clipPath id="c"><path fill="#fff" transform="translate(76.618 261.157)" d="M0 0h76.563v76.563H0z"/></clipPath><radialGradient id="b" cx="0" cy="0" r="1" gradientUnits="userSpaceOnUse" gradientTransform="matrix(-94.2563 0 0 -17.0121 116.326 441.57)"><stop stop-opacity=".321"/><stop offset="1" stop-opacity=".071"/></radialGradient></defs></svg>